<?xml version="1.0"?>
<svg xmlns="http://www.w3.org/2000/svg" viewBox="0 0 80 80">
    <path d="M 40 8 C 31.362745 8 25.212873 9.7814464 21.212891 11.587891 C 17.212909 13.394334 15.292969 15.292969 15.292969 15.292969 L 15 15.585938 L 15 41.667969 C 15 43.251234 15.539435 45.474592 16.566406 48.154297 C 17.593377 50.834001 19.123081 53.924104 21.166016 57.009766 C 25.251886 63.181089 31.40226 69.361668 39.701172 71.955078 L 40 72.046875 L 40.298828 71.955078 C 48.615856 69.356007 54.759265 62.917803 58.839844 56.626953 C 60.880133 53.481528 62.406616 50.364858 63.431641 47.738281 C 64.456665 45.111707 65 43.058935 65 41.667969 L 65 15.585938 L 64.707031 15.292969 C 64.707031 15.292969 62.787091 13.394334 58.787109 11.587891 C 54.787127 9.7814464 48.637255 8 40 8 z M 40 10 C 48.362745 10 54.212873 11.718553 57.962891 13.412109 C 61.27602 14.908361 62.667763 16.158995 63 16.470703 L 63 41.667969 C 63 42.443503 62.543335 44.513389 61.568359 47.011719 C 60.593384 49.510048 59.119867 52.517863 57.160156 55.539062 C 53.645514 60.957432 48.552836 66.355345 42 69.146484 L 42 60 L 38 60 L 38 69.15625 C 31.433459 66.402725 26.344535 61.208607 22.833984 55.90625 C 20.876919 52.950287 19.406623 49.978405 18.433594 47.439453 C 17.460565 44.900501 17 42.751203 17 41.667969 L 17 16.470703 C 17.332237 16.158995 18.72398 14.908361 22.037109 13.412109 C 25.787127 11.718553 31.637255 10 40 10 z M 32 14 A 1 1 0 0 0 31 15 A 1 1 0 0 0 32 16 A 1 1 0 0 0 33 15 A 1 1 0 0 0 32 14 z M 36 14 A 1 1 0 0 0 35 15 A 1 1 0 0 0 36 16 A 1 1 0 0 0 37 15 A 1 1 0 0 0 36 14 z M 40 14 A 1 1 0 0 0 39 15 A 1 1 0 0 0 40 16 A 1 1 0 0 0 41 15 A 1 1 0 0 0 40 14 z M 44 14 A 1 1 0 0 0 43 15 A 1 1 0 0 0 44 16 A 1 1 0 0 0 45 15 A 1 1 0 0 0 44 14 z M 48 14 A 1 1 0 0 0 47 15 A 1 1 0 0 0 48 16 A 1 1 0 0 0 49 15 A 1 1 0 0 0 48 14 z M 28 15 A 1 1 0 0 0 27 16 A 1 1 0 0 0 28 17 A 1 1 0 0 0 29 16 A 1 1 0 0 0 28 15 z M 52 15 A 1 1 0 0 0 51 16 A 1 1 0 0 0 52 17 A 1 1 0 0 0 53 16 A 1 1 0 0 0 52 15 z M 24 16 A 1 1 0 0 0 23 17 A 1 1 0 0 0 24 18 A 1 1 0 0 0 25 17 A 1 1 0 0 0 24 16 z M 56 16 A 1 1 0 0 0 55 17 A 1 1 0 0 0 56 18 A 1 1 0 0 0 57 17 A 1 1 0 0 0 56 16 z M 21 18 A 1 1 0 0 0 20 19 A 1 1 0 0 0 21 20 A 1 1 0 0 0 22 19 A 1 1 0 0 0 21 18 z M 59 18 A 1 1 0 0 0 58 19 A 1 1 0 0 0 59 20 A 1 1 0 0 0 60 19 A 1 1 0 0 0 59 18 z M 28.998047 24 C 23.999047 24 21 29 21 29 C 21 29 24.000016 27 27.666016 27 C 31.249016 27 33.034938 30.864109 33.585938 31.412109 C 34.365938 32.193109 35.633062 32.193109 36.414062 31.412109 C 37.195062 30.632109 37.195062 29.366938 36.414062 28.585938 C 35.926063 28.099937 33.582047 24 28.998047 24 z M 51.001953 24 C 46.417953 24 44.073938 28.099938 43.585938 28.585938 C 42.804938 29.366937 42.804937 30.632109 43.585938 31.412109 C 44.366937 32.193109 45.634062 32.193109 46.414062 31.412109 C 46.965063 30.864109 48.750984 27 52.333984 27 C 55.999984 27 59 29 59 29 C 59 29 56.000953 24 51.001953 24 z M 28 32 C 25.95 32 24.147 32.792 23 34 C 24.147 35.208 25.95 36 28 36 C 30.05 36 31.853 35.208 33 34 C 31.853 32.792 30.05 32 28 32 z M 52 32 C 49.95 32 48.147 32.792 47 34 C 48.147 35.208 49.95 36 52 36 C 54.05 36 55.853 35.208 57 34 C 55.853 32.792 54.05 32 52 32 z M 21 43 L 28 54 L 37 54 L 40 51 L 43 54 L 52 54 L 59 43 L 51 50 L 45 50 L 42 46 L 38 46 L 34.667969 50 L 29 50 L 21 43 z"/>
</svg>
